<svg xmlns="http://www.w3.org/2000/svg" viewBox="0 0 64 64"><path fill="#282f63" d="M17.58 53.98h-.13c-2.09 0-3.79 1.7-3.79 3.8V64h7.72v-6.22c0-2.1-1.7-3.8-3.8-3.8z"/><path fill="#282f63" d="M.58 64H11.6v-6.22c0-3.23 2.62-5.86 5.85-5.86h.13c3.23 0 5.86 2.63 5.86 5.86V64h11.01V0H.58v64zM20.73 4.9c0-.57.45-1.03 1.03-1.03h7c.57 0 1.03.46 1.03 1.03v7c0 .57-.46 1.03-1.03 1.03h-7c-.58 0-1.03-.46-1.03-1.03v-7zm0 12.3c0-.57.45-1.03 1.03-1.03h7c.57 0 1.03.46 1.03 1.03v7c0 .58-.46 1.03-1.03 1.03h-7c-.58 0-1.03-.45-1.03-1.03v-7zm0 12.3c0-.57.45-1.03 1.03-1.03h7c.57 0 1.03.46 1.03 1.03v7c0 .57-.46 1.03-1.03 1.03h-7c-.58 0-1.03-.46-1.03-1.03v-7zm0 12.31c0-.57.45-1.03 1.03-1.03h7c.57 0 1.03.46 1.03 1.03v7c0 .57-.46 1.03-1.03 1.03h-7c-.58 0-1.03-.46-1.03-1.03v-7zM5.25 4.9c0-.57.46-1.03 1.03-1.03h7c.57 0 1.03.46 1.03 1.03v7c0 .57-.46 1.03-1.03 1.03h-7c-.57 0-1.03-.46-1.03-1.03v-7zm0 12.3c0-.57.46-1.03 1.03-1.03h7c.57 0 1.03.46 1.03 1.03v7c0 .58-.46 1.03-1.03 1.03h-7c-.57 0-1.03-.45-1.03-1.03v-7zm0 12.3c0-.57.46-1.03 1.03-1.03h7c.57 0 1.03.46 1.03 1.03v7c0 .57-.46 1.03-1.03 1.03h-7c-.57 0-1.03-.46-1.03-1.03v-7zm0 12.31c0-.57.46-1.03 1.03-1.03h7c.57 0 1.03.46 1.03 1.03v7c0 .57-.46 1.03-1.03 1.03h-7c-.57 0-1.03-.46-1.03-1.03v-7z"/><path fill="#282f63" d="M7.31 5.94h4.93v4.93H7.31zM7.31 18.23h4.93v4.93H7.31zM7.31 30.53h4.93v4.93H7.31zM7.31 42.84h4.93v4.93H7.31zM22.8 18.23h4.93v4.93H22.8zM22.8 5.94h4.93v4.93H22.8zM22.8 30.53h4.93v4.93H22.8zM22.8 42.84h4.93v4.93H22.8zM36.53 37.11V64h26.89V37.11H36.53zm11.31 21.98c0 .57-.46 1.03-1.03 1.03h-5.66c-.57 0-1.03-.46-1.03-1.03v-5.66c0-.57.46-1.03 1.03-1.03h5.66c.57 0 1.03.46 1.03 1.03v5.66zm0-11.42c0 .57-.46 1.03-1.03 1.03h-5.66c-.57 0-1.03-.46-1.03-1.03v-5.66c0-.57.46-1.03 1.03-1.03h5.66c.57 0 1.03.46 1.03 1.03v5.66zm11.98 11.42c0 .57-.46 1.03-1.03 1.03h-5.66c-.58 0-1.03-.46-1.03-1.03v-5.66c0-.57.45-1.03 1.03-1.03h5.66c.57 0 1.03.46 1.03 1.03v5.66zm0-11.42c0 .57-.46 1.03-1.03 1.03h-5.66c-.58 0-1.03-.46-1.03-1.03v-5.66c0-.57.45-1.03 1.03-1.03h5.66c.57 0 1.03.46 1.03 1.03v5.66z"/><path fill="#282f63" d="M54.17 54.46h3.59v3.59h-3.59zM54.17 43.05h3.59v3.59h-3.59zM42.18 43.05h3.59v3.59h-3.59zM42.18 54.46h3.59v3.59h-3.59z"/></svg>