<svg xmlns="http://www.w3.org/2000/svg" width="72" height="72" viewBox="0 0 72 72"><path d="M67.625 56.738c-.033-.05.035.049 0 0L47.823 28.167V5.42c0-1.105-.539-1.92-1.643-1.92H27.179c-1.104 0-1.356.816-1.356 1.92v22.097L4.904 56.764c-.035.049-.217.277-.248.33-1.688 2.926-2.078 5.621-.785 7.86 1.306 2.261 3.915 3.546 7.347 3.546h49.451c3.429 0 6.118-1.287 7.424-3.551 1.296-2.245 1.22-5.283-.468-8.211zM29.137 29.302c.237-.338.687-.74.687-1.152V7.5h14v21.301c0 .412-.194.824.044 1.161l9.19 13.262c-3.056 1.232-6.822 2.05-14.531-2.557-5.585-3.337-12.499-2.048-17.199-.449l7.809-10.916zM64.55 62.949c-.554.96-1.969 1.551-3.88 1.551H11.219c-1.915 0-3.33-.589-3.883-1.547-.532-.922-.324-2.391.571-3.975l11.287-15.777c3.942-1.702 12.219-4.454 18.308-.816 4.852 2.898 8.367 3.814 11.116 3.814 2.291 0 4.05-.637 5.607-1.291l9.755 14.076c.897 1.584 1.105 3.039.57 3.965z"/><path d="M22.026 50.969a5.476 5.476 0 00-5.471 5.471 5.477 5.477 0 005.471 5.471 5.477 5.477 0 005.471-5.471 5.476 5.476 0 00-5.471-5.471zm0 8.942c-1.914 0-3.471-1.558-3.471-3.472s1.557-3.471 3.471-3.471 3.471 1.557 3.471 3.471-1.557 3.472-3.471 3.472zM50.775 52.469a4.726 4.726 0 00-4.721 4.721 4.727 4.727 0 004.721 4.721 4.727 4.727 0 004.722-4.721 4.726 4.726 0 00-4.722-4.721zm0 7.442c-1.5 0-2.721-1.222-2.721-2.722s1.221-2.721 2.721-2.721 2.722 1.221 2.722 2.721-1.222 2.722-2.722 2.722zM35.077 45.469a4.025 4.025 0 00-4.021 4.021 4.025 4.025 0 004.021 4.021c2.217 0 4.021-1.805 4.021-4.021s-1.804-4.021-4.021-4.021zm0 6.043a2.024 2.024 0 01-2.021-2.021c0-1.114.907-2.021 2.021-2.021 1.114 0 2.021.906 2.021 2.021s-.907 2.021-2.021 2.021zM40.824 22.42a1 1 0 001-1v-11a1 1 0 10-2 0v11a1 1 0 001 1zM40.824 27.42a1 1 0 001-1v-1a1 1 0 10-2 0v1a1 1 0 001 1z"/></svg>